<?xml version="1.0" encoding="UTF-8" standalone="no"?>
<!DOCTYPE svg PUBLIC "-//W3C//DTD SVG 1.1//EN" "http://www.w3.org/Graphics/SVG/1.1/DTD/svg11.dtd">
<svg width="100%" height="100%" viewBox="0 0 144 144" version="1.1" xmlns="http://www.w3.org/2000/svg" xmlns:xlink="http://www.w3.org/1999/xlink" xml:space="preserve" xmlns:serif="http://www.serif.com/" style="fill-rule:evenodd;clip-rule:evenodd;stroke-linecap:round;stroke-linejoin:round;stroke-miterlimit:1.5;">
    <rect id="toggle-theme-sun" x="0" y="0" width="144" height="144" style="fill:none;"/>
    <g id="toggle-theme-sun1" serif:id="toggle-theme-sun">
        <g transform="matrix(0.503116,0,0,0.503116,33.254204,36.453582)">
            <circle cx="77.012" cy="70.653" r="56.988" style="stroke:black;stroke-width:1.99px;"/>
        </g>
        <g transform="matrix(2.954658,0,0,1.577922,-136.309874,2.629527)">
            <path d="M72,11.402L72,21.722C72,22.496 71.664,23.124 71.251,23.124L69.753,23.124C69.34,23.124 69.004,22.496 69.004,21.722L69.004,11.402C69.004,10.628 69.34,10 69.753,10L71.251,10C71.664,10 72,10.628 72,11.402Z" style="fill:rgb(106,106,106);stroke:black;stroke-width:0.42px;"/>
        </g>
        <g transform="matrix(0,2.837887,-1.517856,0,139.9815,-128.077224)">
            <path d="M72,11.4L72,21.724C72,22.497 71.664,23.124 71.251,23.124L69.753,23.124C69.34,23.124 69.004,22.497 69.004,21.724L69.004,11.4C69.004,10.627 69.34,10 69.753,10L71.251,10C71.664,10 72,10.627 72,11.4Z" style="fill:rgb(106,106,106);stroke:black;stroke-width:0.44px;"/>
        </g>
        <g transform="matrix(0,2.837887,-1.481816,0,53.935699,-128.077224)">
            <path d="M72,11.434L72,21.69C72,22.481 71.664,23.124 71.251,23.124L69.753,23.124C69.34,23.124 69.004,22.481 69.004,21.69L69.004,11.434C69.004,10.643 69.34,10 69.753,10L71.251,10C71.664,10 72,10.643 72,11.434Z" style="fill:rgb(106,106,106);stroke:black;stroke-width:0.44px;"/>
        </g>
        <g transform="matrix(2.954658,0,0,1.682038,-136.309874,88.331154)">
            <path d="M72,11.316L72,21.809C72,22.535 71.664,23.124 71.251,23.124L69.753,23.124C69.34,23.124 69.004,22.535 69.004,21.809L69.004,11.316C69.004,10.589 69.34,10 69.753,10L71.251,10C71.664,10 72,10.589 72,11.316Z" style="fill:rgb(106,106,106);stroke:black;stroke-width:0.42px;"/>
        </g>
        <g transform="matrix(1.306568,1.071053,-0.583154,0.711384,14.3065,-52.773632)">
            <path d="M72,11.375L72,21.749C72,22.508 71.664,23.124 71.251,23.124L69.753,23.124C69.34,23.124 69.004,22.508 69.004,21.749L69.004,11.375C69.004,10.616 69.34,10 69.753,10L71.251,10C71.664,10 72,10.616 72,11.375Z" style="fill:rgb(106,106,106);stroke:black;stroke-width:0.74px;"/>
        </g>
        <g transform="matrix(0.437264,1.631893,-0.888513,0.238076,92.121089,-68.5723)">
            <path d="M72,11.375L72,21.749C72,22.508 71.664,23.124 71.251,23.124L69.753,23.124C69.34,23.124 69.004,22.508 69.004,21.749L69.004,11.375C69.004,10.616 69.34,10 69.753,10L71.251,10C71.664,10 72,10.616 72,11.375Z" style="fill:rgb(106,106,106);stroke:black;stroke-width:0.74px;"/>
        </g>
        <g transform="matrix(-1.306568,1.071053,0.583154,0.711384,128.192504,-52.049283)">
            <path d="M72,11.375L72,21.749C72,22.508 71.664,23.124 71.251,23.124L69.753,23.124C69.34,23.124 69.004,22.508 69.004,21.749L69.004,11.375C69.004,10.616 69.34,10 69.753,10L71.251,10C71.664,10 72,10.616 72,11.375Z" style="fill:rgb(106,106,106);stroke:black;stroke-width:0.74px;"/>
        </g>
        <g transform="matrix(-0.437264,1.631893,0.888513,0.238076,50.377916,-68.5723)">
            <path d="M72,11.375L72,21.749C72,22.508 71.664,23.124 71.251,23.124L69.753,23.124C69.34,23.124 69.004,22.508 69.004,21.749L69.004,11.375C69.004,10.616 69.34,10 69.753,10L71.251,10C71.664,10 72,10.616 72,11.375Z" style="fill:rgb(106,106,106);stroke:black;stroke-width:0.74px;"/>
        </g>
        <g transform="matrix(1.306568,-1.071053,-0.583154,-0.711384,14.3065,194.128218)">
            <path d="M72,11.375L72,21.749C72,22.508 71.664,23.124 71.251,23.124L69.753,23.124C69.34,23.124 69.004,22.508 69.004,21.749L69.004,11.375C69.004,10.616 69.34,10 69.753,10L71.251,10C71.664,10 72,10.616 72,11.375Z" style="fill:rgb(106,106,106);stroke:black;stroke-width:0.74px;"/>
        </g>
        <g transform="matrix(0.437264,-1.631893,-0.888513,-0.238076,92.121089,209.61242)">
            <path d="M72,11.375L72,21.749C72,22.508 71.664,23.124 71.251,23.124L69.753,23.124C69.34,23.124 69.004,22.508 69.004,21.749L69.004,11.375C69.004,10.616 69.34,10 69.753,10L71.251,10C71.664,10 72,10.616 72,11.375Z" style="fill:rgb(106,106,106);stroke:black;stroke-width:0.74px;"/>
        </g>
        <g transform="matrix(-1.306568,-1.071053,0.583154,-0.711384,130.378779,195.809966)">
            <path d="M72,11.375L72,21.749C72,22.508 71.664,23.124 71.251,23.124L69.753,23.124C69.34,23.124 69.004,22.508 69.004,21.749L69.004,11.375C69.004,10.616 69.34,10 69.753,10L71.251,10C71.664,10 72,10.616 72,11.375Z" style="fill:rgb(106,106,106);stroke:black;stroke-width:0.74px;"/>
        </g>
        <g transform="matrix(-0.437264,-1.631893,0.888513,-0.238076,49.028756,211.105815)">
            <path d="M72,11.375L72,21.749C72,22.508 71.664,23.124 71.251,23.124L69.753,23.124C69.34,23.124 69.004,22.508 69.004,21.749L69.004,11.375C69.004,10.616 69.34,10 69.753,10L71.251,10C71.664,10 72,10.616 72,11.375Z" style="fill:rgb(106,106,106);stroke:black;stroke-width:0.74px;"/>
        </g>
    </g>
</svg>
