<?xml version="1.0" encoding="UTF-8" standalone="no"?>
<!DOCTYPE svg PUBLIC "-//W3C//DTD SVG 1.1//EN" "http://www.w3.org/Graphics/SVG/1.1/DTD/svg11.dtd">
<svg width="100%" height="100%" viewBox="0 0 144 144" version="1.1" xmlns="http://www.w3.org/2000/svg" xmlns:xlink="http://www.w3.org/1999/xlink" xml:space="preserve" xmlns:serif="http://www.serif.com/" style="fill-rule:evenodd;clip-rule:evenodd;stroke-linecap:round;stroke-linejoin:round;stroke-miterlimit:1.5;">
    <g transform="matrix(1,0,0,1,-194,0)">
        <rect id="toggle-theme-moon" x="194" y="0" width="144" height="144" style="fill:none;"/>
        <g id="toggle-theme-moon1" serif:id="toggle-theme-moon">
            <g transform="matrix(1.248268,0,0,1.248268,-62.62903,-28.196248)">
                <path d="M258.054,57.299C252.705,58.316 234.271,76.574 248.834,92.366C264.416,109.264 282.765,91.932 283.179,85.774C283.644,78.861 267.872,90.655 259.696,82.195C250.346,72.519 262.737,56.409 258.054,57.299Z" style="fill:white;stroke:black;stroke-width:0.8px;"/>
            </g>
            <g transform="matrix(1.138773,0,0,1.138773,-35.070132,-8.800923)">
                <circle cx="263.475" cy="82.277" r="1.24" style="fill:rgb(8,0,0);"/>
            </g>
            <g transform="matrix(0.775027,0,0,0.775027,61.219016,20.96637)">
                <circle cx="267.247" cy="89.424" r="3.771" style="fill:rgb(8,0,0);"/>
            </g>
            <g transform="matrix(0.775027,0,0,0.775027,61.219016,20.96637)">
                <circle cx="269.682" cy="81.871" r="2.435" style="fill:rgb(8,0,0);"/>
            </g>
            <g transform="matrix(0.104432,0.994532,-1.129655,0.118621,330.909555,-210.262348)">
                <path d="M272.118,57.144L272.118,69.15C272.118,69.446 271.845,69.686 271.509,69.686L270.291,69.686C269.955,69.686 269.682,69.446 269.682,69.15L269.682,57.144C269.682,56.848 269.955,56.608 270.291,56.608L271.509,56.608C271.845,56.608 272.118,56.848 272.118,57.144Z" style="fill:white;"/>
            </g>
            <g transform="matrix(-0.54706,0.35854,-0.427243,-0.651886,457.039083,45.52591)">
                <path d="M272.118,57.119L272.118,69.175C272.118,69.457 271.845,69.686 271.509,69.686L270.291,69.686C269.955,69.686 269.682,69.457 269.682,69.175L269.682,57.119C269.682,56.837 269.955,56.608 270.291,56.608L271.509,56.608C271.845,56.608 272.118,56.837 272.118,57.119Z" style="fill:white;"/>
            </g>
            <g transform="matrix(-0.654036,0.00791,-0.00714,-0.590369,449.147171,141.849016)">
                <path d="M272.118,57.283L272.118,69.012C272.118,69.384 271.845,69.686 271.509,69.686L270.291,69.686C269.955,69.686 269.682,69.384 269.682,69.012L269.682,57.283C269.682,56.91 269.955,56.608 270.291,56.608L271.509,56.608C271.845,56.608 272.118,56.91 272.118,57.283Z" style="fill:white;"/>
            </g>
            <g transform="matrix(0.779603,0.626274,-0.752152,0.9363,112.107684,-184.642555)">
                <path d="M272.118,57.115L272.118,69.179C272.118,69.459 271.845,69.686 271.509,69.686L270.291,69.686C269.955,69.686 269.682,69.459 269.682,69.179L269.682,57.115C269.682,56.835 269.955,56.608 270.291,56.608L271.509,56.608C271.845,56.608 272.118,56.835 272.118,57.115Z" style="fill:white;"/>
            </g>
            <g transform="matrix(0.509446,0.860502,-1.342771,0.794966,225.86615,-226.208203)">
                <path d="M272.118,56.998L272.118,69.296C272.118,69.511 271.845,69.686 271.509,69.686L270.291,69.686C269.955,69.686 269.682,69.511 269.682,69.296L269.682,56.998C269.682,56.783 269.955,56.608 270.291,56.608L271.509,56.608C271.845,56.608 272.118,56.783 272.118,56.998Z" style="fill:white;"/>
            </g>
        </g>
    </g>
</svg>
